<svg xmlns="http://www.w3.org/2000/svg" xmlns:xlink="http://www.w3.org/1999/xlink" width="300" zoomAndPan="magnify" viewBox="0 0 224.87999 149.999998" height="200" preserveAspectRatio="xMidYMid meet" version="1.0"><defs><g/><clipPath id="e09d0bedc8"><path d="M 14.992188 32.507812 L 88.222656 32.507812 L 88.222656 69 L 14.992188 69 Z M 14.992188 32.507812 " clip-rule="nonzero"/></clipPath><clipPath id="ddca10cff4"><path d="M 14.992188 46.75 L 14.992188 90.207031 C 14.992188 93.984375 16.492188 97.605469 19.164062 100.277344 C 21.835938 102.949219 25.457031 104.449219 29.234375 104.449219 L 74.207031 104.449219 C 77.984375 104.449219 81.605469 102.949219 84.277344 100.277344 C 86.949219 97.605469 88.449219 93.984375 88.449219 90.207031 L 88.449219 46.75 C 88.449219 42.972656 86.949219 39.347656 84.277344 36.679688 C 81.605469 34.007812 77.984375 32.507812 74.207031 32.507812 L 29.234375 32.507812 C 25.457031 32.507812 21.835938 34.007812 19.164062 36.679688 C 16.492188 39.347656 14.992188 42.972656 14.992188 46.75 Z M 14.992188 46.75 " clip-rule="nonzero"/></clipPath><clipPath id="ba1d5a5428"><path d="M 14.992188 68 L 88.222656 68 L 88.222656 104.546875 L 14.992188 104.546875 Z M 14.992188 68 " clip-rule="nonzero"/></clipPath><clipPath id="d06b1f90e2"><path d="M 14.992188 46.75 L 14.992188 90.207031 C 14.992188 93.984375 16.492188 97.605469 19.164062 100.277344 C 21.835938 102.949219 25.457031 104.449219 29.234375 104.449219 L 74.207031 104.449219 C 77.984375 104.449219 81.605469 102.949219 84.277344 100.277344 C 86.949219 97.605469 88.449219 93.984375 88.449219 90.207031 L 88.449219 46.75 C 88.449219 42.972656 86.949219 39.347656 84.277344 36.679688 C 81.605469 34.007812 77.984375 32.507812 74.207031 32.507812 L 29.234375 32.507812 C 25.457031 32.507812 21.835938 34.007812 19.164062 36.679688 C 16.492188 39.347656 14.992188 42.972656 14.992188 46.75 Z M 14.992188 46.75 " clip-rule="nonzero"/></clipPath></defs><g clip-path="url(#e09d0bedc8)"><g clip-path="url(#ddca10cff4)"><path fill="#1abc9c" d="M 14.519531 68.472656 L 28.410156 68.472656 L 39.351562 54.636719 L 25.457031 54.636719 Z M 84.558594 32.503906 L 55.484375 68.472656 L 69.378906 68.472656 L 98.453125 32.503906 Z M 56.71875 41.542969 L 35 68.472656 L 48.894531 68.472656 L 70.613281 41.542969 L 56.71875 41.542969 " fill-opacity="1" fill-rule="nonzero"/></g></g><g clip-path="url(#ba1d5a5428)"><g clip-path="url(#d06b1f90e2)"><path fill="#2c3e50" d="M 89.859375 68.472656 L 75.96875 68.472656 L 65.027344 82.308594 L 78.921875 82.308594 Z M 19.820312 104.441406 L 48.894531 68.472656 L 35 68.472656 L 5.925781 104.441406 Z M 47.65625 95.402344 L 69.378906 68.472656 L 55.484375 68.472656 L 33.765625 95.402344 L 47.65625 95.402344 " fill-opacity="1" fill-rule="nonzero"/></g></g><g fill="#1abc9c" fill-opacity="1"><g transform="translate(102.623884, 66.395812)"><g><path d="M 1.796875 -27.015625 L 18.671875 -27.015625 L 18.671875 -21.765625 L 7.578125 -21.765625 L 7.578125 -16.875 L 17.34375 -16.875 L 17.34375 -11.625 L 7.578125 -11.625 L 7.578125 0 L 1.796875 0 Z M 1.796875 -27.015625 "/></g></g></g><g fill="#1abc9c" fill-opacity="1"><g transform="translate(121.028439, 66.395812)"><g><path d="M 7.4375 0 L 2.171875 0 L 2.171875 -18.90625 L 7.4375 -18.90625 Z M 4.796875 -21.5 C 3.984375 -21.5 3.296875 -21.773438 2.734375 -22.328125 C 2.179688 -22.890625 1.90625 -23.578125 1.90625 -24.390625 C 1.90625 -25.203125 2.179688 -25.894531 2.734375 -26.46875 C 3.296875 -27.039062 3.984375 -27.328125 4.796875 -27.328125 C 5.609375 -27.328125 6.296875 -27.039062 6.859375 -26.46875 C 7.421875 -25.894531 7.703125 -25.203125 7.703125 -24.390625 C 7.703125 -23.578125 7.421875 -22.890625 6.859375 -22.328125 C 6.296875 -21.773438 5.609375 -21.5 4.796875 -21.5 Z M 4.796875 -21.5 "/></g></g></g><g fill="#1abc9c" fill-opacity="1"><g transform="translate(129.906825, 66.395812)"><g><path d="M 11.546875 -18.90625 C 12.253906 -18.90625 13.039062 -18.800781 13.90625 -18.59375 C 14.769531 -18.394531 15.582031 -18.015625 16.34375 -17.453125 C 17.101562 -16.890625 17.742188 -16.113281 18.265625 -15.125 C 18.785156 -14.132812 19.046875 -12.851562 19.046875 -11.28125 L 19.046875 0 L 13.75 0 L 13.75 -11.09375 C 13.75 -11.675781 13.65625 -12.171875 13.46875 -12.578125 C 13.28125 -12.984375 13.023438 -13.304688 12.703125 -13.546875 C 12.390625 -13.785156 12.03125 -13.960938 11.625 -14.078125 C 11.21875 -14.191406 10.8125 -14.25 10.40625 -14.25 C 10.070312 -14.25 9.707031 -14.191406 9.3125 -14.078125 C 8.925781 -13.960938 8.5625 -13.773438 8.21875 -13.515625 C 7.875 -13.265625 7.585938 -12.9375 7.359375 -12.53125 C 7.128906 -12.125 7.015625 -11.644531 7.015625 -11.09375 L 7.015625 0 L 1.75 0 L 1.75 -18.90625 L 6.25 -18.90625 L 7.015625 -17.453125 C 7.617188 -17.890625 8.300781 -18.238281 9.0625 -18.5 C 9.832031 -18.769531 10.660156 -18.90625 11.546875 -18.90625 Z M 11.546875 -18.90625 "/></g></g></g><g fill="#2c3e50" fill-opacity="1"><g transform="translate(98.456181, 99.218148)"><g><path d="M 0.875 -27.015625 L 20.421875 -27.015625 L 20.421875 -21.765625 L 13.53125 -21.765625 L 13.53125 0 L 7.78125 0 L 7.78125 -21.765625 L 0.875 -21.765625 Z M 0.875 -27.015625 "/></g></g></g><g fill="#2c3e50" fill-opacity="1"><g transform="translate(118.994601, 99.218148)"><g><path d="M 6.890625 -16.265625 C 7.148438 -16.671875 7.441406 -17.054688 7.765625 -17.421875 C 8.097656 -17.796875 8.492188 -18.128906 8.953125 -18.421875 C 9.410156 -18.710938 9.929688 -18.945312 10.515625 -19.125 C 11.097656 -19.300781 11.757812 -19.390625 12.5 -19.390625 C 13.363281 -19.390625 14.367188 -19.238281 15.515625 -18.9375 L 15.015625 -14.25 C 14.734375 -14.300781 14.453125 -14.363281 14.171875 -14.4375 C 13.941406 -14.488281 13.6875 -14.535156 13.40625 -14.578125 C 13.132812 -14.617188 12.882812 -14.640625 12.65625 -14.640625 C 11.84375 -14.640625 11.085938 -14.523438 10.390625 -14.296875 C 9.691406 -14.066406 9.085938 -13.75 8.578125 -13.34375 C 8.066406 -12.9375 7.65625 -12.445312 7.34375 -11.875 C 7.039062 -11.300781 6.890625 -10.679688 6.890625 -10.015625 L 6.890625 0 L 1.640625 0 L 1.640625 -18.90625 L 6.40625 -18.90625 Z M 6.890625 -16.265625 "/></g></g></g><g fill="#2c3e50" fill-opacity="1"><g transform="translate(133.931631, 99.218148)"><g><path d="M 21.5 -18.90625 L 21.5 0 L 16.953125 0 L 16.421875 -2.015625 C 15.679688 -1.023438 14.796875 -0.363281 13.765625 -0.03125 C 12.742188 0.289062 11.675781 0.453125 10.5625 0.453125 C 9.207031 0.453125 7.960938 0.191406 6.828125 -0.328125 C 5.703125 -0.847656 4.71875 -1.554688 3.875 -2.453125 C 3.039062 -3.359375 2.390625 -4.414062 1.921875 -5.625 C 1.453125 -6.832031 1.21875 -8.117188 1.21875 -9.484375 C 1.21875 -10.859375 1.453125 -12.148438 1.921875 -13.359375 C 2.390625 -14.566406 3.039062 -15.617188 3.875 -16.515625 C 4.71875 -17.421875 5.703125 -18.132812 6.828125 -18.65625 C 7.960938 -19.175781 9.207031 -19.4375 10.5625 -19.4375 C 11.78125 -19.4375 12.894531 -19.242188 13.90625 -18.859375 C 14.925781 -18.484375 15.765625 -17.875 16.421875 -17.03125 L 16.953125 -18.90625 Z M 16.234375 -9.40625 C 16.234375 -10.40625 16.097656 -11.238281 15.828125 -11.90625 C 15.566406 -12.582031 15.210938 -13.128906 14.765625 -13.546875 C 14.316406 -13.960938 13.796875 -14.265625 13.203125 -14.453125 C 12.609375 -14.648438 11.96875 -14.75 11.28125 -14.75 C 10.59375 -14.75 9.945312 -14.609375 9.34375 -14.328125 C 8.75 -14.046875 8.222656 -13.671875 7.765625 -13.203125 C 7.316406 -12.734375 6.960938 -12.175781 6.703125 -11.53125 C 6.453125 -10.882812 6.328125 -10.203125 6.328125 -9.484375 C 6.328125 -8.753906 6.453125 -8.070312 6.703125 -7.4375 C 6.960938 -6.800781 7.316406 -6.242188 7.765625 -5.765625 C 8.222656 -5.296875 8.75 -4.921875 9.34375 -4.640625 C 9.945312 -4.367188 10.59375 -4.234375 11.28125 -4.234375 C 12.65625 -4.234375 13.816406 -4.65625 14.765625 -5.5 C 15.722656 -6.351562 16.210938 -7.65625 16.234375 -9.40625 Z M 16.234375 -9.40625 "/></g></g></g><g fill="#2c3e50" fill-opacity="1"><g transform="translate(156.337184, 99.218148)"><g><path d="M 11.015625 -14.75 C 10.378906 -14.75 9.78125 -14.601562 9.21875 -14.3125 C 8.664062 -14.019531 8.175781 -13.625 7.75 -13.125 C 7.332031 -12.632812 7.003906 -12.054688 6.765625 -11.390625 C 6.523438 -10.734375 6.40625 -10.023438 6.40625 -9.265625 C 6.40625 -8.503906 6.523438 -7.8125 6.765625 -7.1875 C 7.003906 -6.5625 7.332031 -6.023438 7.75 -5.578125 C 8.175781 -5.140625 8.664062 -4.789062 9.21875 -4.53125 C 9.78125 -4.28125 10.378906 -4.15625 11.015625 -4.15625 C 11.796875 -4.15625 12.5625 -4.335938 13.3125 -4.703125 C 14.0625 -5.078125 14.707031 -5.59375 15.25 -6.25 L 18.484375 -3.046875 C 17.597656 -1.984375 16.503906 -1.132812 15.203125 -0.5 C 13.910156 0.132812 12.515625 0.453125 11.015625 0.453125 C 9.640625 0.453125 8.351562 0.191406 7.15625 -0.328125 C 5.96875 -0.847656 4.925781 -1.554688 4.03125 -2.453125 C 3.144531 -3.359375 2.441406 -4.414062 1.921875 -5.625 C 1.398438 -6.832031 1.140625 -8.117188 1.140625 -9.484375 C 1.140625 -10.859375 1.398438 -12.148438 1.921875 -13.359375 C 2.441406 -14.566406 3.144531 -15.617188 4.03125 -16.515625 C 4.925781 -17.421875 5.96875 -18.132812 7.15625 -18.65625 C 8.351562 -19.175781 9.640625 -19.4375 11.015625 -19.4375 C 12.566406 -19.4375 14 -19.101562 15.3125 -18.4375 C 16.632812 -17.78125 17.753906 -16.878906 18.671875 -15.734375 L 15.015625 -12.921875 C 14.273438 -13.609375 13.609375 -14.082031 13.015625 -14.34375 C 12.421875 -14.613281 11.753906 -14.75 11.015625 -14.75 Z M 11.015625 -14.75 "/></g></g></g><g fill="#2c3e50" fill-opacity="1"><g transform="translate(175.199, 99.218148)"><g><path d="M 12.1875 -11.046875 L 20.15625 0 L 13.875 0 L 8.875 -7.546875 L 7.015625 -5.53125 L 7.015625 0 L 1.75 0 L 1.75 -27.8125 L 7.015625 -27.8125 L 7.015625 -12.390625 L 13.140625 -18.90625 L 19.546875 -18.90625 Z M 12.1875 -11.046875 "/></g></g></g><g fill="#2c3e50" fill-opacity="1"><g transform="translate(194.861011, 99.218148)"><g><path d="M 6.890625 -16.265625 C 7.148438 -16.671875 7.441406 -17.054688 7.765625 -17.421875 C 8.097656 -17.796875 8.492188 -18.128906 8.953125 -18.421875 C 9.410156 -18.710938 9.929688 -18.945312 10.515625 -19.125 C 11.097656 -19.300781 11.757812 -19.390625 12.5 -19.390625 C 13.363281 -19.390625 14.367188 -19.238281 15.515625 -18.9375 L 15.015625 -14.25 C 14.734375 -14.300781 14.453125 -14.363281 14.171875 -14.4375 C 13.941406 -14.488281 13.6875 -14.535156 13.40625 -14.578125 C 13.132812 -14.617188 12.882812 -14.640625 12.65625 -14.640625 C 11.84375 -14.640625 11.085938 -14.523438 10.390625 -14.296875 C 9.691406 -14.066406 9.085938 -13.75 8.578125 -13.34375 C 8.066406 -12.9375 7.65625 -12.445312 7.34375 -11.875 C 7.039062 -11.300781 6.890625 -10.679688 6.890625 -10.015625 L 6.890625 0 L 1.640625 0 L 1.640625 -18.90625 L 6.40625 -18.90625 Z M 6.890625 -16.265625 "/></g></g></g></svg>